<?xml version="1.0" encoding="iso-8859-1"?>
<!-- Generator: Adobe Illustrator 19.0.0, SVG Export Plug-In . SVG Version: 6.00 Build 0)  -->
<svg xmlns="http://www.w3.org/2000/svg" xmlns:xlink="http://www.w3.org/1999/xlink" version="1.1" id="Layer_1" x="0px" y="0px" viewBox="0 0 512.001 512.001" style="enable-background:new 0 0 512.001 512.001;" xml:space="preserve" width="512px" height="512px">
<g>
	<g>
		<g>
			<path d="M437.019,74.982C388.667,26.63,324.379,0.001,255.999,0.001S123.332,26.63,74.981,74.982     C26.628,123.333,0,187.621,0,256.001s26.628,132.667,74.981,181.018C123.332,485.372,187.619,512,256.001,512     c68.379,0,132.666-26.628,181.02-74.981c48.351-48.351,74.981-112.639,74.981-181.018S485.37,123.333,437.019,74.982z      M256.001,493.691c-63.49,0.001-123.181-24.724-168.073-69.618C43.033,379.18,18.309,319.491,18.309,256.001     c0-60.428,22.411-117.403,63.279-161.465l57.719,57.719h-25.161c-18.693,0-33.902,15.209-33.902,33.902v164.708     c0,18.693,15.209,33.902,33.902,33.902H371.82l45.645,45.645C373.402,471.279,316.427,493.691,256.001,493.691z M292.613,170.564     h31.124v32.953c0,5.056,4.098,9.154,9.154,9.154h80.554v138.193c0,8.598-6.995,15.593-15.593,15.593h-18.45l-55.028-55.028     c7.839-12.444,12.395-27.156,12.395-42.918c0-44.537-36.233-80.77-80.77-80.77c-15.763,0-30.473,4.555-42.918,12.395     l-29.572-29.572h35.873H292.613z M228.537,152.255v-20.137h54.923v20.137H228.537z M342.049,194.363v-23.799h55.807     c8.598,0,15.593,6.995,15.593,15.593v8.206H342.049z M255.999,312.239c11.945,0,22.782-4.819,30.682-12.61l13.241,13.241     c-11.293,11.182-26.813,18.103-43.923,18.103c-34.441,0-62.461-28.02-62.461-62.461c0-17.11,6.92-32.63,18.103-43.923     l13.24,13.24c-7.791,7.9-12.61,18.737-12.61,30.683C212.271,292.623,231.887,312.239,255.999,312.239z M273.737,286.685     c-4.585,4.475-10.84,7.245-17.736,7.245c-14.016,0-25.42-11.403-25.42-25.419c-0.001-6.898,2.77-13.153,7.245-17.738     L273.737,286.685z M256.04,243.094c13.984,0.022,25.355,11.393,25.377,25.377L256.04,243.094z M296.901,283.957     c1.821-4.805,2.826-10.009,2.826-15.445c0-24.112-19.616-43.729-43.728-43.729c-5.437,0-10.64,1.005-15.445,2.826l-14.108-14.108     c8.804-4.749,18.868-7.451,29.554-7.451c34.441,0,62.461,28.02,62.461,62.461c-0.001,10.685-2.702,20.75-7.452,29.554     L296.901,283.957z M198.701,211.648c-14.498,14.608-23.471,34.706-23.471,56.864c0,44.537,36.233,80.77,80.77,80.77     c22.157,0,42.256-8.974,56.862-23.471l40.648,40.648H114.146c-8.598,0-15.593-6.995-15.593-15.593V186.157     c0-8.598,6.995-15.593,15.593-15.593h43.471L198.701,211.648z M430.412,417.466l-32.698-32.698h0.142     c18.693,0,33.902-15.209,33.902-33.902V186.157c0-18.693-15.209-33.902-33.902-33.902H301.77v-29.292     c0-5.056-4.098-9.154-9.154-9.154h-73.232c-5.057,0-9.154,4.099-9.154,9.154v29.293h-45.028L94.535,81.589     C138.597,40.723,195.572,18.31,255.999,18.31c63.489,0,123.178,24.724,168.073,69.619     c44.895,44.893,69.619,104.583,69.619,168.073C493.691,316.43,471.28,373.404,430.412,417.466z" fill="#ff893b"/>
			<circle cx="168.124" cy="329.841" r="9.154" fill="#ff893b"/>
		</g>
	</g>
</g>
<g>
</g>
<g>
</g>
<g>
</g>
<g>
</g>
<g>
</g>
<g>
</g>
<g>
</g>
<g>
</g>
<g>
</g>
<g>
</g>
<g>
</g>
<g>
</g>
<g>
</g>
<g>
</g>
<g>
</g>
</svg>
