<?xml version="1.0" encoding="utf-8"?>
<!-- Generator: Adobe Illustrator 18.0.0, SVG Export Plug-In . SVG Version: 6.00 Build 0)  -->
<!DOCTYPE svg PUBLIC "-//W3C//DTD SVG 1.1//EN" "http://www.w3.org/Graphics/SVG/1.1/DTD/svg11.dtd">
<svg version="1.1" id="Layer_1" xmlns="http://www.w3.org/2000/svg" xmlns:xlink="http://www.w3.org/1999/xlink" x="0px" y="0px"
	 viewBox="0 0 239.6 32.3" enable-background="new 0 0 239.6 32.3" xml:space="preserve">
<g>
	<path fill="#55565A" d="M2,22.9h5.7c0.7,2.8,3.1,3.9,8.4,3.9c6.1,0,8.4-1.5,8.4-4.7c0-3.5-3.5-3.8-8.6-4c-7.1-0.3-13.6-1-13.6-8.2
		C2.3,4.1,6.8,1,15.8,1c7.7,0,12,1.7,12.6,7.6h-5.6c-0.6-2.2-2.3-3.2-7.5-3.2c-5.3,0-7.4,1.4-7.4,3.9c0,3.6,3.9,3.8,7.9,4
		c9.3,0.5,14,1.8,14,8.3c0,6.8-4.6,9.6-14.2,9.6C6.6,31.2,2.7,29,2,22.9"/>
	<polyline fill="#55565A" points="48.4,13.4 50.7,13.4 63.8,1.5 70.6,1.5 55.5,15 72.6,30.7 65.3,30.7 50.7,17.1 48.4,17.1 
		48.4,30.7 42.9,30.7 42.9,1.5 48.4,1.5 48.4,13.4 	"/>
	<path fill="#55565A" d="M104.7,23.2H88.5l-3.1,7.6h-5.9l13-29.2h8.6l12.8,29.2h-6.1L104.7,23.2 M90.3,18.8h12.6L97.6,5.7h-1.9
		L90.3,18.8z"/>
	<path fill="#55565A" d="M129.5,16.3c0,8.2,2.5,10.5,10.6,10.5c6.5,0,9.2-1,9.2-5.8v-1.8H142v-4.3h12.5v5.9
		c0,8.3-4.8,10.4-14.7,10.4c-11.3,0-15.7-3.3-15.7-14.8C124.1,4.4,128.8,1,140,1c9.1,0,12.9,1.6,14,7.7h-5.5
		c-0.7-2.5-2.9-3.3-8.7-3.3C132.6,5.4,129.5,7.7,129.5,16.3"/>
	<polyline fill="#55565A" points="170.8,1.5 194,1.5 194,5.8 176.2,5.8 176.2,13.6 192.7,13.6 192.7,17.9 176.2,17.9 176.2,26.4 
		194.4,26.4 194.4,30.7 170.8,30.7 170.8,1.5 	"/>
	<polyline fill="#55565A" points="232.8,1.5 237.9,1.5 237.9,30.7 232.8,30.7 215.9,9.3 215.8,9.3 215.8,30.7 210.6,30.7 210.6,3.7 
		209,1.5 215.5,1.5 232.7,22.7 232.8,22.7 232.8,1.5 	"/>
</g>
</svg>
